<svg version="1.1" preserveAspectRatio="none" xmlns="http://www.w3.org/2000/svg"  width="500" height="500" viewBox="0 0 500 500"><rect width="100%" height="100%" fill="black" fill-opacity="1"/><svg viewBox="79.7069 126.334 379.7804 249.0408" width="333" height="218.36457700292064" x="83.5px" y="140.8177px" xmlns="http://www.w3.org/2000/svg" xmlns:xlink="http://www.w3.org/1999/xlink" preserveAspectRatio="none"><defs></defs><style>.a-VpF9B9iXcolor {fill:white;fill-opacity:1;}.a-VpF9B9iXstrokeColor-str {stroke:#929292;stroke-opacity:1;}.companyName {fill:white;fill-opacity:1;}.icon3-str {stroke:#929292;stroke-opacity:1;}</style><g opacity="1" transform="rotate(0 79.7069 126.334)">
<svg width="379.7804" height="120" x="79.7069" y="126.334" version="1.1" preserveAspectRatio="none" viewBox="-0.8 -28.88 115.2 36.400000000000006">
  <g transform="matrix(1 0 0 1 0 0)" class="companyName"><path id="id-D6z1nYkh5" d="M-0.80 7.52L-0.80 6.76Q2 6.68 3.34 4.68Q4.68 2.68 4.68-2.08L4.68-2.08L4.68-24.08Q4.68-25.60 4.44-26.28Q4.20-26.96 3.54-27.20Q2.88-27.44 1.44-27.52L1.44-27.52L1.44-28.32Q3.12-28.20 6.48-28.20L6.48-28.20Q9.76-28.20 11.64-28.32L11.64-28.32L11.64-27.52Q10.20-27.44 9.54-27.20Q8.88-26.96 8.64-26.28Q8.40-25.60 8.40-24.08L8.40-24.08L8.40-9.44Q8.40-6.04 8.28-3.42Q8.16-0.80 7.72 1L7.72 1Q7 3.92 4.78 5.72Q2.56 7.52-0.80 7.52L-0.80 7.52Z M27.56-28.88Q31.36-28.88 34.22-27.16Q37.08-25.44 38.66-22.18Q40.24-18.92 40.24-14.40L40.24-14.40Q40.24-10 38.62-6.60Q37-3.20 34.10-1.32Q31.20 0.56 27.52 0.56L27.52 0.56Q23.72 0.56 20.86-1.16Q18-2.88 16.42-6.14Q14.84-9.40 14.84-13.92L14.84-13.92Q14.84-18.32 16.46-21.72Q18.08-25.12 20.98-27Q23.88-28.88 27.56-28.88L27.56-28.88ZM27.40-28.16Q24.84-28.16 22.90-26.38Q20.96-24.60 19.90-21.40Q18.84-18.20 18.84-14.08L18.84-14.08Q18.84-9.92 20.02-6.76Q21.20-3.60 23.20-1.88Q25.20-0.16 27.68-0.16L27.68-0.16Q30.24-0.16 32.18-1.94Q34.12-3.72 35.18-6.92Q36.24-10.12 36.24-14.24L36.24-14.24Q36.24-18.40 35.06-21.56Q33.88-24.72 31.88-26.44Q29.88-28.16 27.40-28.16L27.40-28.16Z M52.60-28.76Q54.36-28.76 55.38-28.38Q56.40-28 57.48-27.28L57.48-27.28Q58.36-26.72 58.84-26.72L58.84-26.72Q59.20-26.72 59.40-27.14Q59.60-27.56 59.72-28.48L59.72-28.48L60.64-28.48Q60.44-26.16 60.44-20.32L60.44-20.32L59.52-20.32Q59.28-23.56 57.66-25.78Q56.04-28 52.96-28L52.96-28Q50.80-28 49.44-26.70Q48.08-25.40 48.08-23.36L48.08-23.36Q48.08-21.84 48.78-20.72Q49.48-19.60 50.56-18.80Q51.64-18 53.64-16.76L53.64-16.76L54.80-16.04Q57.32-14.48 58.78-13.30Q60.24-12.12 61.12-10.60Q62-9.08 62-7.04L62-7.04Q62-3.40 59.60-1.42Q57.20 0.56 53.52 0.56L53.52 0.56Q51.60 0.56 50.38 0.16Q49.16-0.24 48.04-0.92L48.04-0.92Q47.16-1.48 46.68-1.48L46.68-1.48Q46.32-1.48 46.12-1.06Q45.92-0.64 45.80 0.28L45.80 0.28L44.88 0.28Q45.04-1.92 45.04-9.32L45.04-9.32L45.96-9.32Q46.24-5.28 47.96-2.76Q49.68-0.24 53.24-0.24L53.24-0.24Q55.40-0.24 56.92-1.58Q58.44-2.92 58.44-5.56L58.44-5.56Q58.44-7.80 56.94-9.36Q55.44-10.92 52.20-12.88L52.20-12.88Q49.84-14.32 48.38-15.44Q46.92-16.56 46-18.14Q45.08-19.72 45.08-21.84L45.08-21.84Q45.08-25.20 47.24-26.98Q49.40-28.76 52.60-28.76L52.60-28.76Z M86.44-3.36Q87.40-0.88 89.20-0.80L89.20-0.80L89.20 0Q87.60-0.12 84.92-0.12L84.92-0.12Q81.48-0.12 79.80 0L79.80 0L79.80-0.80Q81.32-0.88 81.98-1.18Q82.64-1.48 82.64-2.28L82.64-2.28Q82.64-2.96 82.16-4.16L82.16-4.16L79.72-10.72L70.04-10.72L68.40-6.48Q67.60-4.32 67.60-3.20L67.60-3.20Q67.60-1.96 68.46-1.40Q69.32-0.84 71.08-0.80L71.08-0.80L71.08 0Q68.80-0.12 66.48-0.12L66.48-0.12Q64.68-0.12 63.48 0L63.48 0L63.48-0.80Q65.48-1.28 66.64-4.28L66.64-4.28L76.04-28.52L76.68-28.52L86.44-3.36ZM70.36-11.52L79.40-11.52L74.92-23.48L70.36-11.52Z M111.64-3.36Q112.60-0.88 114.40-0.80L114.40-0.80L114.40 0Q112.80-0.12 110.12-0.12L110.12-0.12Q106.68-0.12 105 0L105 0L105-0.80Q106.52-0.88 107.18-1.18Q107.84-1.48 107.84-2.28L107.84-2.28Q107.84-2.96 107.36-4.16L107.36-4.16L104.92-10.72L95.24-10.72L93.60-6.48Q92.80-4.32 92.80-3.20L92.80-3.20Q92.80-1.96 93.66-1.40Q94.52-0.84 96.28-0.80L96.28-0.80L96.28 0Q94-0.12 91.68-0.12L91.68-0.12Q89.88-0.12 88.68 0L88.68 0L88.68-0.80Q90.68-1.28 91.84-4.28L91.84-4.28L101.24-28.52L101.88-28.52L111.64-3.36ZM95.56-11.52L104.60-11.52L100.12-23.48L95.56-11.52Z"/></g>
</svg>
</g><g opacity="1" transform="rotate(-16 123.1135 272.6259)">
<svg width="274.1235" height="106.8896" x="123.1135" y="272.6259" version="1.1" preserveAspectRatio="none" viewBox="-4 -28.4 115.2 44.92">
  <g transform="matrix(1 0 0 1 0 0)" class="a-VpF9B9iXcolor"><path id="id--VpF9B9iX8" d="M5.32-10.96L5.32-10.96Q5.32-9.96 8.96-9.04L8.96-9.04Q11.04-8.56 14-8.24L14-8.24Q10.28-11.56 6.64-11.56L6.64-11.56Q5.32-11.56 5.32-10.96ZM21.16-0.28L21.16-0.28Q22-0.28 25.32-6.88L25.32-6.88Q20.84-6.80 19.74-6.80Q18.64-6.80 16.64-6.88L16.64-6.88Q19-4.04 20.48-0.84L20.48-0.84Q20.72-0.28 21.16-0.28ZM33.68-27.36L33.68-27.36Q32.36-27.36 30.16-24.54Q27.96-21.72 24.34-16.56Q20.72-11.40 17.60-8L17.60-8Q20.40-7.92 22.50-7.92Q24.60-7.92 25.88-8L25.88-8Q28.72-13.60 31.42-19.84Q34.12-26.08 34.12-27L34.12-27Q34.12-27.36 33.68-27.36ZM28.04-8.08L28.04-8.08L36.36-8.68Q36.68-8.68 36.68-8.36Q36.68-8.04 36.14-7.68Q35.60-7.32 34.04-7.20Q32.48-7.08 27.44-6.96L27.44-6.96Q23.36 1 21.68 1L21.68 1Q20.56 1 20.08 0L20.08 0Q18.32-3.56 15.96-6.24L15.96-6.24L14.80-5.12Q8.88 0.40 1 0.40L1 0.40Q-1 0.40-2.50 0.10Q-4-0.20-4-0.72L-4-0.72Q-4-1.08-3.56-1.08L-3.56-1.08Q-3.28-1.08-2.88-0.92L-2.88-0.92Q-1.68-0.44 1.64-0.44L1.64-0.44Q7.60-0.44 12.92-5.12L12.92-5.12Q14.84-6.92 14.88-6.96L14.88-6.96Q11.12-7.24 8.56-7.96L8.56-7.96Q4-9.24 4-11L4-11Q4-11.60 4.66-12Q5.32-12.40 6.40-12.40L6.40-12.40Q11.16-12.40 15.44-8.12L15.44-8.12Q15.80-8.12 15.96-8.08L15.96-8.08Q19.52-11.92 24.64-18.96L24.64-18.96Q26.44-21.40 28.24-23.68L28.24-23.68Q32-28.40 34.40-28.40L34.40-28.40Q35.96-28.40 35.96-27.04L35.96-27.04Q35.96-26.12 33.38-19.86Q30.80-13.60 28.04-8.08Z M52.72-6.64L52.72-6.52Q44.28 0.52 42.28 0.52L42.28 0.52Q41.12 0.52 41.12-0.44Q41.12-1.40 41.98-2.72Q42.84-4.04 43.70-5.06Q44.56-6.08 44.56-6.28Q44.56-6.48 44.44-6.48L44.44-6.48Q40.72-4 40.02-3.44Q39.32-2.88 37.74-1.60Q36.16-0.32 35.68 0Q35.20 0.32 34.64 0.32L34.64 0.32Q34.08 0.32 34.08-0.16L34.08-0.16Q34.08-0.72 36.32-3.68L36.32-3.68Q38.48-6.64 38.48-7L38.48-7Q38.48-7.08 38.34-7.08Q38.20-7.08 34.88-4.64L34.88-4.64L34.72-5.24Q37.56-7.52 38.56-8.16Q39.56-8.80 40.18-8.80Q40.80-8.80 40.80-8.20L40.80-8.20Q40.80-7.80 38.54-4.94Q36.28-2.08 36.28-1.86Q36.28-1.64 36.42-1.64Q36.56-1.64 40.98-4.86Q45.40-8.08 46.36-8.08L46.36-8.08Q46.64-8.08 46.90-7.86Q47.16-7.64 47.16-7.44L47.16-7.44Q47.16-6.96 45.04-4.26Q42.92-1.56 42.92-1.20Q42.92-0.84 43.42-0.84Q43.92-0.84 45.56-1.92L45.56-1.92Q48.56-3.88 51.08-5.96L51.08-5.96L51.96-6.68Q52.24-6.88 52.48-6.88Q52.72-6.88 52.72-6.64L52.72-6.64Z M56.04-4.80L56.04-4.80Q55.80-4.80 55.80-4.98Q55.80-5.16 56.08-5.40L56.08-5.40Q57.40-6.48 57.40-7.36L57.40-7.36Q57.40-7.92 56.40-8L56.40-8Q54.60-7.96 52.10-5.40Q49.60-2.84 49.60-1.56L49.60-1.56Q49.60-1.12 50.10-1.12Q50.60-1.12 51.44-1.80L51.44-1.80Q52.20-2.28 54.28-4.20L54.28-4.20Q54.76-4.68 55.20-4.68L55.20-4.68Q55.76-4.68 55.76-4.16L55.76-4.16Q55.76-3.96 55.64-3.84Q55.52-3.72 55.20-3.34Q54.88-2.96 54.64-2.64L54.64-2.64Q53.92-1.60 53.92-1.28L53.92-1.28Q53.92-0.48 54.56-0.48L54.56-0.48Q55.40-0.48 57.72-2.02Q60.04-3.56 61.96-5.12L61.96-5.12L63.88-6.64Q64.16-6.84 64.40-6.84Q64.64-6.84 64.64-6.56L64.64-6.56L64.64-6.48Q61.56-3.88 58.14-1.60Q54.72 0.68 53.64 0.68L53.64 0.68Q52.36 0.68 52.36-0.68L52.36-0.68Q52.36-1 52.48-1.28Q52.60-1.56 52.60-1.68Q52.60-1.80 52.52-1.84L52.52-1.84Q52.40-1.84 50.98-0.76Q49.56 0.32 48.50 0.32Q47.44 0.32 47.44-0.80Q47.44-1.92 48.94-3.82Q50.44-5.72 52.96-7.28Q55.48-8.84 57.88-8.84L57.88-8.84Q58.44-8.84 58.82-8.56Q59.20-8.28 59.20-7.70Q59.20-7.12 58.04-5.96Q56.88-4.80 56.04-4.80Z M72.56-5.80L73.56-6.64Q73.84-6.84 74.08-6.84Q74.32-6.84 74.32-6.56L74.32-6.56L74.32-6.48Q70.16-3.04 68-1.68L68-1.68Q65.20 0.44 63.28 0.44L63.28 0.44Q61.60 0.44 61.60-1.56L61.60-1.56Q61.60-4.24 65.06-9.50Q68.52-14.76 72.84-18.96Q77.16-23.16 79.36-23.16L79.36-23.16Q80.36-23.16 80.36-22.28L80.36-22.28Q80.36-20.08 75.10-15.02Q69.84-9.96 64.76-6.40L64.76-6.40Q63.28-3.56 63.28-2.08Q63.28-0.60 64.32-0.60Q65.36-0.60 67.04-1.80L67.04-1.80Q69.88-3.48 72.56-5.80L72.56-5.80ZM78.36-21.88L78.36-21.88Q76.68-21.88 72.40-17.04Q68.12-12.20 65.32-7.36L65.32-7.36Q69.92-10.64 74.32-15.38Q78.72-20.12 78.72-21.52L78.72-21.52Q78.72-21.88 78.36-21.88Z M70.56 3.84L71.76 4.56L72.28 3.88Q72.92 3.12 73.08 2.88L73.08 2.88Q71.92 3.40 71.24 3.58Q70.56 3.76 70.56 3.84L70.56 3.84ZM71.96 6.96L71.96 6.96Q71.96 6.56 71.84 6.12L71.84 6.12Q65.96 13.48 65.96 14.92L65.96 14.92Q65.96 15.04 66.08 15.04L66.08 15.04Q66.76 15.04 68.16 13.72Q69.56 12.40 70.76 10.44Q71.96 8.48 71.96 6.96ZM68.76 3.88L68.76 3.88Q68.88 3.56 68.94 3.52Q69 3.48 69.24 3.46Q69.48 3.44 70.76 3.10Q72.04 2.76 73.80 2L73.80 2Q78.92-4.52 79.22-5.10Q79.52-5.68 79.52-5.80Q79.52-5.92 79.36-5.92Q79.20-5.92 79-5.64L79-5.64Q78.92-5.60 77.94-4.70Q76.96-3.80 76.02-3.04Q75.08-2.28 73.84-1.58Q72.60-0.88 71.72-0.88Q70.84-0.88 70.84-1.52L70.84-1.52Q70.88-3 72.86-5.60Q74.84-8.20 75.52-8.20Q76.20-8.20 76.20-7.84L76.20-7.84Q76.20-7.64 74.38-5.36Q72.56-3.08 72.56-2.52Q72.56-1.96 72.92-1.96L72.92-1.96Q73.64-1.96 77.06-4.88Q80.48-7.80 81.28-7.80L81.28-7.80Q81.52-7.80 81.74-7.56Q81.96-7.32 81.96-7.04L81.96-7.04Q81.96-6.16 76.20 0.84L76.20 0.84Q81.60-2.16 86.24-5.96L86.24-5.96L87.12-6.68Q87.44-6.88 87.64-6.88Q87.84-6.88 87.84-6.68L87.84-6.68L87.80-6.52Q88-6.52 85.68-4.76Q83.36-3 81.40-1.64Q79.44-0.28 75.36 1.80L75.36 1.80L72.52 5.28Q73.08 6.08 73.08 7.16L73.08 7.16Q73.08 9 71.52 11.26Q69.96 13.52 68.02 15.02Q66.08 16.52 64.84 16.52L64.84 16.52Q64.48 16.52 64.18 16.26Q63.88 16 63.88 15.54Q63.88 15.08 64.34 14.16Q64.80 13.24 65.70 12.02Q66.60 10.80 67.40 9.82Q68.20 8.84 69.44 7.36Q70.68 5.88 71.28 5.16L71.28 5.16Q70.56 4.52 69.66 4.36Q68.76 4.20 68.76 3.88Z M93.84-5.76L94.96-6.64Q95.28-6.84 95.50-6.84Q95.72-6.84 95.72-6.56L95.72-6.56L95.72-6.48Q92.64-3.88 89.22-1.60Q85.80 0.68 84.88 0.68Q83.96 0.68 83.34 0.34Q82.72 0 82.72-0.44Q82.72-0.88 82.96-1.18Q83.20-1.48 83.40-1.48Q83.60-1.48 84.06-0.86Q84.52-0.24 84.96-0.24L84.96-0.24Q85.88-0.24 86.40-2.20Q86.92-4.16 86.92-4.90Q86.92-5.64 86.82-5.64Q86.72-5.64 86.64-5.56L86.64-5.56L85.48-4.64L85.32-5.24Q87.84-7.24 88.24-7.92L88.24-7.92Q88.48-8.56 88.92-8.56L88.92-8.56Q89.20-8.56 89.20-8.36Q89.20-8.16 88.92-7.50Q88.64-6.84 88.18-4.52Q87.72-2.20 87.72-1.84Q87.72-1.48 87.92-1.48L87.92-1.48Q90.72-3.20 93.84-5.76L93.84-5.76Z M99.30-12.08Q99.68-12.08 99.90-11.84Q100.12-11.60 100.12-11.16Q100.12-10.72 99.52-10.04Q98.92-9.36 98.48-9.36Q98.04-9.36 97.84-9.62Q97.64-9.88 97.64-10.22Q97.64-10.56 98.28-11.32Q98.92-12.08 99.30-12.08ZM101.72-5.96L102.60-6.68Q102.92-6.88 103.10-6.88Q103.28-6.88 103.28-6.64L103.28-6.64L103.28-6.52Q103.44-6.52 101.14-4.76Q98.84-3 96.22-1.24Q93.60 0.52 92.92 0.52L92.92 0.52Q91.76 0.52 91.76-0.44L91.76-0.44Q91.76-1.60 93.76-4.82Q95.76-8.04 96.68-8.04L96.68-8.04Q97.36-8.04 97.36-7.52Q97.36-7 95.52-4.68Q93.68-2.36 93.68-1.36L93.68-1.36Q93.68-0.80 94.10-0.80Q94.52-0.80 96.20-1.92L96.20-1.92Q99.20-3.92 101.72-5.96L101.72-5.96Z M109.32-5.76L110.44-6.64Q110.76-6.84 110.98-6.84Q111.20-6.84 111.20-6.56L111.20-6.56L111.20-6.48Q108.12-3.88 104.70-1.60Q101.28 0.68 100.36 0.68Q99.44 0.68 98.82 0.34Q98.20 0 98.20-0.44Q98.20-0.88 98.44-1.18Q98.68-1.48 98.88-1.48Q99.08-1.48 99.54-0.86Q100.00-0.24 100.44-0.24L100.44-0.24Q101.36-0.24 101.88-2.20Q102.40-4.16 102.40-4.90Q102.40-5.64 102.30-5.64Q102.20-5.64 102.12-5.56L102.12-5.56L100.96-4.64L100.80-5.24Q103.32-7.24 103.72-7.92L103.72-7.92Q103.96-8.56 104.40-8.56L104.40-8.56Q104.68-8.56 104.68-8.36Q104.68-8.16 104.40-7.50Q104.12-6.84 103.66-4.52Q103.20-2.20 103.20-1.84Q103.20-1.48 103.40-1.48L103.40-1.48Q106.20-3.20 109.32-5.76L109.32-5.76Z"/></g>
</svg>
</g></svg></svg>